<svg width="40" height="40" viewBox="0 0 40 40" fill="none" xmlns="http://www.w3.org/2000/svg">
<g id="Mask group">
<mask id="mask0_20_72" style="mask-type:alpha" maskUnits="userSpaceOnUse" x="0" y="0" width="40" height="40">
<rect id="Rectangle 15" width="40" height="40" fill="#D9D9D9"/>
</mask>
<g mask="url(#mask0_20_72)">
<g id="Vector">
<path d="M24.6103 13.8539H11.693C11.1443 13.8539 10.6985 13.3894 10.6985 12.8178V9.0663C10.6985 7.92299 11.5901 7 12.6818 7H23.61C24.7017 7 25.5934 7.92894 25.5934 9.0663V12.8178C25.5991 13.3894 25.1533 13.8539 24.6103 13.8539ZM12.6875 11.7876H23.6158V9.0663H12.6875V11.7876ZM22.7356 36.7678L18.3402 31.9861C18.2031 31.8372 18.1345 31.6407 18.1459 31.4383C18.1573 31.2358 18.2545 31.0512 18.4031 30.9202L19.712 29.8186C19.8949 29.6638 20.135 29.6161 20.3579 29.6876L23.2271 30.6046L23.7872 30.2533L20.375 26.4661C20.3069 26.3894 20.2553 26.2984 20.2238 26.1992C20.1923 26.1 20.1816 25.9949 20.1925 25.8911C20.2033 25.7872 20.2354 25.687 20.2866 25.5971C20.3378 25.5073 20.407 25.43 20.4893 25.3704L21.8896 24.3521C22.0783 24.2152 22.324 24.1854 22.5412 24.2747L29.6457 27.2104C30.4688 26.6983 32.7493 25.2751 33.1094 25.0607C33.6105 24.757 34.1945 24.636 34.769 24.7169C35.3436 24.7978 35.8758 25.0759 36.2816 25.5073C36.7731 26.0016 37.036 26.6983 36.996 27.4069C36.9785 27.7174 36.9 28.0209 36.7653 28.2985C36.6306 28.5761 36.4426 28.8219 36.213 29.0206C35.7271 29.4017 25.6162 35.6483 23.5929 36.8988C23.4843 36.9643 23.3643 37 23.2385 37C23.0499 36.994 22.867 36.9166 22.7356 36.7678Z" fill="#2595E8"/>
<path d="M29.3142 11.7757H6.98332C5.88592 11.7757 5 12.7047 5 13.842V30.5272C5 31.6705 5.88592 32.5935 6.98332 32.5935H18.1173L17.7344 32.1767C17.5058 31.9266 17.3857 31.5812 17.4029 31.2358C17.4257 30.8904 17.5858 30.5689 17.843 30.3486L19.1576 29.2469C19.4662 28.9849 19.8777 28.9016 20.2607 29.0266L22.5755 29.765L19.7691 26.6507C19.5291 26.3827 19.4148 26.0254 19.4548 25.6681C19.4891 25.3109 19.6777 24.9833 19.9635 24.7809L21.3638 23.7686C21.6953 23.5304 22.1126 23.4768 22.4841 23.6316L29.36 26.472C29.8572 26.1624 30.6288 25.68 31.3033 25.2632V13.842C31.3017 13.2935 31.0915 12.7679 30.7187 12.3806C30.3458 11.9932 29.8408 11.7757 29.3142 11.7757ZM24.0787 18.189H12.2245C11.5958 18.189 11.0814 17.6531 11.0814 16.998C11.0814 16.343 11.5958 15.8071 12.2245 15.8071H24.0787C24.7074 15.8071 25.2218 16.343 25.2218 16.998C25.2218 17.6531 24.7074 18.189 24.0787 18.189Z" fill="#2595E8"/>
</g>
<g id="Group 6">
<ellipse id="Ellipse 9" cx="14.5554" cy="14.9891" rx="16.7564" ry="24.6936" transform="rotate(47.8915 14.5554 14.9891)" fill="white" fill-opacity="0.1"/>
<ellipse id="Ellipse 8" cx="11.3461" cy="11.627" rx="12.2034" ry="17.4806" transform="rotate(44.8998 11.3461 11.627)" fill="white" fill-opacity="0.2"/>
<ellipse id="Ellipse 7" cx="7.11668" cy="9.24775" rx="6.92627" ry="8.9052" transform="rotate(42.314 7.11668 9.24775)" fill="white" fill-opacity="0.25"/>
</g>
</g>
</g>
</svg>
