<svg width="20" height="20" viewBox="0 0 20 20" fill="none" xmlns="http://www.w3.org/2000/svg">
<g id="Frame">
<path id="Vector" d="M11.7321 6.7467H15.7171V13.4617H11.7321V6.7467Z" fill="#3E73FE"/>
<path id="Vector_2" d="M17.2296 1.69H15.0172V2.85904C15.0172 3.2516 14.6987 3.57002 14.3062 3.57002C13.9136 3.57002 13.5952 3.2516 13.5952 2.85904V1.69H6.27059V2.85904C6.27059 3.2516 5.95217 3.57002 5.55961 3.57002C5.16715 3.57002 4.84863 3.2516 4.84863 2.85904V1.69H2.63625C1.55263 1.69 0.674133 2.56848 0.674133 3.65212V15.7512C0.674133 16.8348 1.55261 17.7133 2.63625 17.7133H12.6437H16.4403H17.2296C18.3134 17.7133 19.1918 16.8348 19.1918 15.7512V3.65212C19.1918 2.5685 18.3134 1.69 17.2296 1.69ZM8.91355 13.8517C8.91353 14.0671 8.73873 14.2416 8.52363 14.2416H3.75875C3.54375 14.2416 3.36885 14.0671 3.36885 13.8517C3.36885 13.636 3.54375 13.4617 3.75875 13.4617H8.13375V10.4716H3.75875C3.54375 10.4716 3.36885 10.2972 3.36885 10.0817C3.36885 9.8661 3.54375 9.69176 3.75875 9.69176H8.13375V6.74668H3.75875C3.54375 6.74668 3.36885 6.57234 3.36885 6.35678C3.36885 6.14122 3.54375 5.96688 3.75875 5.96688H8.52365C8.73875 5.96688 8.91355 6.14122 8.91355 6.35678V13.8517ZM16.497 13.8517C16.497 14.0671 16.3222 14.2416 16.1071 14.2416H11.3423C11.1272 14.2416 10.9523 14.0671 10.9523 13.8517V6.35678C10.9523 6.14122 11.1272 5.96688 11.3423 5.96688H16.1071C16.3222 5.96688 16.497 6.14122 16.497 6.35678V13.8517Z" fill="#3E73FE"/>
<path id="Vector_3" d="M5.55982 3.28581C5.79542 3.28581 5.9864 3.09481 5.9864 2.85923V1.17621C5.9864 0.940614 5.7954 0.749634 5.55982 0.749634C5.32422 0.749634 5.13324 0.940614 5.13324 1.17621V2.85923C5.13322 3.09481 5.32422 3.28581 5.55982 3.28581Z" fill="#3E73FE"/>
<path id="Vector_4" d="M14.3061 3.28581C14.5417 3.28581 14.7327 3.09481 14.7327 2.85923V1.17621C14.7327 0.940614 14.5417 0.749634 14.3061 0.749634C14.0705 0.749634 13.8795 0.940614 13.8795 1.17621V2.85923C13.8795 3.09481 14.0705 3.28581 14.3061 3.28581Z" fill="#3E73FE"/>
</g>
</svg>
