<svg width="40" height="40" viewBox="0 0 40 40" fill="none" xmlns="http://www.w3.org/2000/svg">
<g id="Group 12">
<g id="Group 11">
<path id="Vector" d="M27.2486 11.6264C26.9569 11.6264 26.6772 11.5105 26.4709 11.3043C26.2647 11.098 26.1488 10.8183 26.1488 10.5266V6.63862C26.1488 6.34693 26.2647 6.06719 26.4709 5.86094C26.6772 5.65469 26.9569 5.53882 27.2486 5.53882C27.5403 5.53882 27.82 5.65469 28.0263 5.86094C28.2325 6.06719 28.3484 6.34693 28.3484 6.63862V10.5266C28.3502 11.1332 27.857 11.6264 27.2486 11.6264Z" fill="#59ADF8"/>
<path id="Vector_2" d="M29.7938 7.54403V10.5266C29.7938 11.7902 28.5122 12.8198 27.2486 12.8198C25.985 12.8198 24.7034 11.792 24.7034 10.5266V7.52783H15.3452V10.5248C15.3452 11.7884 14.0636 12.818 12.8 12.818C11.5364 12.818 10.2548 11.7902 10.2548 10.5248V7.53323C7.8554 7.63043 5.942 9.60323 5.942 12.0242V15.5468H33.941V12.0242C33.941 9.65903 32.114 7.72223 29.7938 7.54403Z" fill="#3A9CED"/>
<path id="Vector_3" d="M12.7982 11.6264C12.6538 11.6264 12.5108 11.598 12.3773 11.5427C12.2439 11.4874 12.1226 11.4064 12.0205 11.3043C11.9184 11.2022 11.8374 11.0809 11.7821 10.9475C11.7268 10.8141 11.6984 10.671 11.6984 10.5266V6.63862C11.6984 6.49419 11.7268 6.35118 11.7821 6.21774C11.8374 6.08431 11.9184 5.96307 12.0205 5.86094C12.1226 5.75882 12.2439 5.67781 12.3773 5.62254C12.5108 5.56727 12.6538 5.53882 12.7982 5.53882C13.0899 5.53882 13.3696 5.65469 13.5759 5.86094C13.7821 6.06719 13.898 6.34693 13.898 6.63862V10.5266C13.8998 11.1332 13.4066 11.6264 12.7982 11.6264Z" fill="#6BC2FC"/>
<path id="Vector_4" d="M27.614 12.7874C27.4934 12.8054 27.371 12.818 27.2486 12.818C25.985 12.818 24.7034 11.7902 24.7034 10.5248V7.52783H15.3452V10.5248C15.3452 11.7884 14.0636 12.818 12.8 12.818C11.5364 12.818 10.2548 11.7902 10.2548 10.5248V7.53323C7.8554 7.63043 5.942 9.60323 5.942 12.0242V15.5468H26.2586C26.7716 14.663 27.2234 13.7414 27.614 12.7874Z" fill="#59ADF8"/>
<path id="Vector_5" d="M19.9298 7.52783H15.3452V10.5248C15.3452 11.7884 14.0636 12.818 12.8 12.818C11.5364 12.818 10.2548 11.7902 10.2548 10.5248V7.53323C7.8554 7.63043 5.942 9.60323 5.942 12.0242V15.5468H11.5274C14.9836 13.6578 17.8816 10.8921 19.9298 7.52783Z" fill="#6BC2FC"/>
<path id="Vector_6" d="M5.942 17.795V29.5634C5.942 32.0456 7.9544 34.0598 10.4384 34.0598H29.4446C31.9286 34.0598 33.941 32.0474 33.941 29.5634V17.795H5.942ZM25.8554 24.2444L19.1216 29.711C18.7742 29.9918 18.3422 30.143 17.8994 30.143C17.8058 30.143 17.7104 30.1358 17.6168 30.1214C17.3512 30.0822 17.0966 29.9879 16.8694 29.8447C16.6423 29.7016 16.4474 29.5126 16.2974 29.2898L13.7126 25.4666C13.2428 24.77 13.4246 23.825 14.1212 23.3552C14.816 22.8836 15.7628 23.0672 16.2326 23.762L18.1424 26.5862L23.9402 21.881C24.2531 21.6269 24.6542 21.5074 25.0552 21.5489C25.4563 21.5904 25.8244 21.7895 26.0786 22.1024C26.6078 22.7576 26.507 23.7152 25.8554 24.2444Z" fill="#2595E8"/>
<path id="Vector_7" d="M5.942 17.795V29.5634C5.942 32.0456 7.9544 34.0598 10.4384 34.0598H17.9678C25.337 32.402 31.3238 27.101 33.941 20.1476V17.795H5.942ZM25.8554 24.2444L19.1216 29.711C18.7742 29.9918 18.3422 30.143 17.8994 30.143C17.8058 30.143 17.7104 30.1358 17.6168 30.1214C17.3512 30.0822 17.0966 29.9879 16.8694 29.8447C16.6423 29.7016 16.4474 29.5126 16.2974 29.2898L13.7126 25.4666C13.2428 24.77 13.4246 23.825 14.1212 23.3552C14.816 22.8836 15.7628 23.0672 16.2326 23.762L18.1424 26.5862L23.9402 21.881C24.2531 21.6269 24.6542 21.5074 25.0552 21.5489C25.4563 21.5904 25.8244 21.7895 26.0786 22.1024C26.6078 22.7576 26.507 23.7152 25.8554 24.2444Z" fill="#3A9CED"/>
<path id="Vector_8" d="M13.7108 25.4684C13.241 24.7718 13.4228 23.8268 14.1194 23.357C14.8142 22.8854 15.761 23.069 16.2308 23.7638L16.688 24.4388C19.8794 22.8872 22.646 20.5994 24.7646 17.7932H5.942V26.6546C6.2732 26.669 6.608 26.678 6.9428 26.678C9.3368 26.678 11.639 26.2964 13.799 25.5998L13.7108 25.4684Z" fill="#59ADF8"/>
</g>
</g>
</svg>
