<svg width="40" height="40" viewBox="0 0 40 40" fill="none" xmlns="http://www.w3.org/2000/svg">
<g id="Mask group">
<mask id="mask0_20_74" style="mask-type:alpha" maskUnits="userSpaceOnUse" x="0" y="0" width="40" height="40">
<rect id="Rectangle 16" width="40" height="40" fill="#D9D9D9"/>
</mask>
<g mask="url(#mask0_20_74)">
<path id="Vector" d="M26.3098 24.9816H14.3872L14.3734 24.6595C14.3673 24.5141 14.3645 24.3668 14.3645 24.2208C14.3645 19.7146 17.0448 12.8098 20.3481 12.8098C23.6513 12.8098 26.3326 19.7146 26.3326 24.2208C26.3326 24.3668 26.3293 24.5141 26.3232 24.6593L26.3098 24.9816ZM20.4009 12.6884C18.6437 12.6884 17.2138 11.2879 17.2138 9.56623C17.2138 7.84504 18.6437 6.4447 20.4009 6.4447C22.1583 6.4447 23.5887 7.84504 23.5887 9.56623C23.5887 11.2879 22.1584 12.6884 20.4009 12.6884ZM34.4835 24.9816H27.4798L27.4945 24.6311C27.501 24.4734 27.5042 24.3138 27.5042 24.1552C27.5042 21.7982 25.8477 16.3914 24.8329 14.9062L24.6781 14.68L24.8678 14.4827C25.9217 13.3882 27.1851 12.8098 28.5217 12.8098C31.825 12.8098 34.5057 19.7146 34.5057 24.2208C34.5057 24.3668 34.503 24.5141 34.4969 24.6594L34.4835 24.9816ZM28.5745 12.6884C26.8174 12.6884 25.3873 11.2879 25.3873 9.56623C25.3873 7.84504 26.8174 6.4447 28.5745 6.4447C30.3324 6.4447 31.7625 7.84504 31.7625 9.56623C31.7625 11.2879 30.3324 12.6884 28.5745 12.6884ZM13.4307 24.9816H6.4272L6.41414 24.6593C6.40765 24.5141 6.40484 24.3668 6.40484 24.2208C6.40484 19.7146 9.08562 12.8098 12.3889 12.8098C13.7254 12.8098 14.989 13.3881 16.0425 14.4827L16.2329 14.68L16.0778 14.9062C15.0628 16.3913 13.4063 21.7981 13.4063 24.1551C13.4063 24.3137 13.4096 24.4734 13.4161 24.6311L13.4307 24.9816ZM12.3361 12.6884C10.5786 12.6884 9.14814 11.2879 9.14814 9.56623C9.14814 7.84504 10.5786 6.4447 12.3361 6.4447C14.0936 6.4447 15.5232 7.84504 15.5232 9.56623C15.5232 11.2879 14.0937 12.6884 12.3361 12.6884ZM6.40481 26.0272H34.537V32.5552H6.40481V26.0272Z" fill="#2595E8"/>
<g id="Group 9">
<ellipse id="Ellipse 9" cx="14.9259" cy="14.4932" rx="16.7564" ry="24.6936" transform="rotate(40.3258 14.9259 14.4932)" fill="white" fill-opacity="0.1"/>
<ellipse id="Ellipse 8" cx="9.8622" cy="10.7481" rx="14.1372" ry="20.3731" transform="rotate(33.2549 9.8622 10.7481)" fill="white" fill-opacity="0.2"/>
<ellipse id="Ellipse 7" cx="10.759" cy="8.12691" rx="6.92626" ry="8.9052" transform="rotate(38.0935 10.759 8.12691)" fill="white" fill-opacity="0.25"/>
</g>
</g>
</g>
</svg>
