<svg width="20" height="20" viewBox="0 0 20 20" fill="none" xmlns="http://www.w3.org/2000/svg">
<g id="Frame">
<path id="Vector" d="M5.40139 9.69935L9.9927 6.19087L14.5839 9.81804C14.7154 9.92703 14.8805 9.9873 15.0513 9.98868C15.1602 9.98884 15.2679 9.96499 15.3667 9.91883C15.4654 9.87268 15.5527 9.80534 15.6225 9.72161C15.685 9.64665 15.732 9.5601 15.761 9.46693C15.7899 9.37376 15.8002 9.27579 15.7912 9.17864C15.7823 9.08148 15.7542 8.98705 15.7087 8.90074C15.6632 8.81444 15.6012 8.73796 15.5261 8.67567L10.4674 4.66284C10.1937 4.43778 9.79907 4.43778 9.5254 4.66284L4.46674 8.5496C4.39053 8.6108 4.32716 8.68647 4.28029 8.77225C4.23341 8.85803 4.20396 8.95223 4.19362 9.04943C4.18327 9.14663 4.19225 9.24492 4.22002 9.33864C4.2478 9.43236 4.29382 9.51967 4.35546 9.59554C4.41721 9.67119 4.49329 9.7339 4.57933 9.78008C4.66538 9.82626 4.75969 9.85499 4.85687 9.86464C4.95404 9.87428 5.05217 9.86464 5.14561 9.83628C5.23905 9.80792 5.32598 9.76138 5.40139 9.69935Z" fill="#3E73FE"/>
<path id="Vector_2" d="M10.4674 10.1593C10.1937 9.93425 9.79904 9.93425 9.52536 10.1593L4.46671 14.0461C4.3905 14.1073 4.32713 14.1829 4.28026 14.2687C4.23339 14.3545 4.20394 14.4487 4.19361 14.5459C4.18328 14.6431 4.19226 14.7414 4.22003 14.8351C4.2478 14.9288 4.29381 15.0161 4.35542 15.092C4.41663 15.1682 4.4923 15.2315 4.57808 15.2784C4.66386 15.3252 4.75805 15.3547 4.85525 15.365C4.95244 15.3753 5.05072 15.3664 5.14444 15.3386C5.23816 15.3108 5.32546 15.2648 5.40134 15.2032L9.99267 11.6873L14.5839 15.3145C14.7154 15.4235 14.8805 15.4837 15.0512 15.4851C15.1602 15.4853 15.2679 15.4614 15.3666 15.4153C15.4654 15.3691 15.5527 15.3018 15.6225 15.218C15.6849 15.1431 15.732 15.0565 15.7609 14.9634C15.7899 14.8702 15.8002 14.7722 15.7912 14.6751C15.7823 14.5779 15.7542 14.4835 15.7087 14.3972C15.6632 14.3109 15.6011 14.2344 15.526 14.1721L10.4674 10.1593Z" fill="#3E73FE"/>
</g>
</svg>
