<svg width="40" height="40" viewBox="0 0 40 40" fill="none" xmlns="http://www.w3.org/2000/svg">
<g id="Mask group">
<mask id="mask0_21_88" style="mask-type:alpha" maskUnits="userSpaceOnUse" x="0" y="0" width="40" height="40">
<rect id="Rectangle 17" width="40" height="40" fill="#D9D9D9"/>
</mask>
<g mask="url(#mask0_21_88)">
<g id="Group 13">
<path id="Vector" d="M7.32162 21.0486H9.6785C9.72079 21.0486 9.76266 21.057 9.80172 21.0732C9.84078 21.0894 9.87627 21.1131 9.90614 21.143C9.93601 21.173 9.95969 21.2085 9.97582 21.2476C9.99194 21.2867 10.0002 21.3286 10.0001 21.3708V21.7275C9.9998 21.8126 9.96577 21.8941 9.90549 21.9542C9.84521 22.0142 9.76359 22.0479 9.6785 22.0479H7.32162C7.23632 22.0479 7.15452 22.0141 7.0942 21.9537C7.03389 21.8934 7 21.8116 7 21.7263V21.3708C6.99992 21.3286 7.00818 21.2867 7.02431 21.2476C7.04043 21.2085 7.06411 21.173 7.09398 21.143C7.12386 21.1131 7.15934 21.0894 7.1984 21.0732C7.23746 21.057 7.27933 21.0486 7.32162 21.0486ZM7.32162 11.0585H9.6785C9.7638 11.0585 9.84561 11.0924 9.90592 11.1527C9.96624 11.213 10.0001 11.2948 10.0001 11.3801V11.7377C10.0001 11.823 9.96624 11.9048 9.90592 11.9651C9.84561 12.0254 9.7638 12.0593 9.6785 12.0593H7.32162C7.23632 12.0593 7.15452 12.0254 7.0942 11.9651C7.03389 11.9048 7 11.823 7 11.7377V11.3801C7 11.2948 7.03389 11.213 7.0942 11.1527C7.15452 11.0924 7.23632 11.0585 7.32162 11.0585ZM7.32162 16.0551H9.6785C9.7638 16.0551 9.84561 16.089 9.90592 16.1493C9.96624 16.2096 10.0001 16.2914 10.0001 16.3767V16.7334C10.0001 16.8187 9.96624 16.9005 9.90592 16.9608C9.84561 17.0211 9.7638 17.055 9.6785 17.055H7.32162C7.23632 17.055 7.15452 17.0211 7.0942 16.9608C7.03389 16.9005 7 16.8187 7 16.7334V16.377C7 16.2917 7.03389 16.2099 7.0942 16.1496C7.15452 16.0893 7.23632 16.0554 7.32162 16.0554V16.0551ZM7.32162 26.0415H9.6785C9.7638 26.0415 9.84561 26.0754 9.90592 26.1357C9.96624 26.196 10.0001 26.2779 10.0001 26.3631V26.7199C10.0001 26.8052 9.96624 26.887 9.90592 26.9473C9.84561 27.0076 9.7638 27.0415 9.6785 27.0415H7.32162C7.23632 27.0415 7.15452 27.0076 7.0942 26.9473C7.03389 26.887 7 26.8052 7 26.7199V26.3635C7 26.2782 7.03389 26.1964 7.0942 26.136C7.15452 26.0757 7.23632 26.0418 7.32162 26.0418V26.0415Z" fill="#2595E8"/>
<path id="Vector_2" d="M30.9271 7.9968H29.1685C29.1068 7.99697 29.0471 7.97438 29.0009 7.93333C28.9548 7.89228 28.9254 7.83565 28.9183 7.77428C28.8632 7.28642 28.6304 6.83592 28.2644 6.50868C27.8984 6.18145 27.4248 6.00037 26.9338 6H10.1993C9.90383 5.99988 9.61127 6.05797 9.3383 6.17095C9.06533 6.28393 8.81729 6.44959 8.60837 6.65846C8.39944 6.86733 8.23371 7.11532 8.12066 7.38826C8.0076 7.6612 7.94943 7.95374 7.94947 8.24917V9.74123C7.94947 9.80808 7.97603 9.87219 8.0233 9.91946C8.07057 9.96673 8.13468 9.99329 8.20153 9.99329H9.6939C9.85841 9.99317 10.0213 10.0255 10.1733 10.0883C10.3254 10.1512 10.4635 10.2434 10.5799 10.3596C10.6963 10.4759 10.7886 10.614 10.8516 10.7659C10.9146 10.9179 10.9471 11.0808 10.9471 11.2453V11.9932C10.9466 12.2582 10.841 12.5122 10.6536 12.6996C10.4662 12.887 10.2122 12.9925 9.94719 12.9931H8.20277C8.16951 12.9929 8.13655 12.9994 8.10578 13.012C8.07502 13.0246 8.04706 13.0432 8.02352 13.0667C7.99997 13.0902 7.98131 13.1181 7.9686 13.1488C7.95589 13.1796 7.94939 13.2125 7.94947 13.2458V14.7381C7.94947 14.805 7.97603 14.8691 8.0233 14.9164C8.07057 14.9636 8.13468 14.9902 8.20153 14.9902H9.6939C10.026 14.9902 10.3446 15.1221 10.5794 15.357C10.8143 15.5919 10.9462 15.9104 10.9462 16.2425V16.7383C10.9462 17.0705 10.8143 17.389 10.5794 17.6238C10.3446 17.8587 10.026 17.9906 9.6939 17.9906H8.20277C8.13591 17.9906 8.0718 18.0172 8.02453 18.0645C7.97726 18.1117 7.9507 18.1758 7.9507 18.2427V19.7348C7.9507 19.8016 7.97726 19.8657 8.02453 19.913C8.0718 19.9603 8.13591 19.9868 8.20277 19.9868H9.69513C10.0273 19.9868 10.3458 20.1188 10.5806 20.3536C10.8155 20.5885 10.9474 20.907 10.9474 21.2391V21.9864C10.947 22.2515 10.8415 22.5055 10.654 22.693C10.4666 22.8805 10.2126 22.9861 9.9475 22.9866H8.20277C8.13591 22.9866 8.0718 23.0132 8.02453 23.0605C7.97726 23.1077 7.9507 23.1718 7.9507 23.2387V24.7344C7.9507 24.8013 7.97726 24.8654 8.02453 24.9127C8.0718 24.9599 8.13591 24.9865 8.20277 24.9865H9.69513C10.0273 24.9865 10.3458 25.1184 10.5806 25.3533C10.8155 25.5882 10.9474 25.9067 10.9474 26.2388V26.9799C10.9469 27.2449 10.8413 27.4989 10.6539 27.6863C10.4665 27.8738 10.2125 27.9793 9.9475 27.9799H8.20277C8.16938 27.9797 8.13629 27.9862 8.10543 27.9989C8.07456 28.0116 8.04653 28.0304 8.02297 28.054C7.9994 28.0777 7.98077 28.1058 7.96815 28.1367C7.95554 28.1676 7.94919 28.2007 7.94947 28.2341V31.7285C7.94947 32.3249 8.1864 32.8969 8.60815 33.3187C9.02989 33.7404 9.6019 33.9773 10.1983 33.9773H30.675C30.9704 33.9773 31.2628 33.9192 31.5357 33.8061C31.8085 33.6931 32.0564 33.5275 32.2652 33.3187C32.4741 33.1098 32.6397 32.8619 32.7527 32.5891C32.8657 32.3162 32.9239 32.0238 32.9239 31.7285V9.9936C32.9234 9.46419 32.7129 8.95661 32.3385 8.5823C31.9641 8.20798 31.4565 7.99751 30.9271 7.99711V7.9968ZM22.2416 10.4829C22.4878 10.0668 23.2138 9.88126 23.6401 10.1158L26.025 11.4515C26.4516 11.6928 26.6476 12.3957 26.4026 12.8118L18.8666 25.5448C18.8332 25.6016 18.7789 25.643 18.7154 25.6603C18.6518 25.6775 18.584 25.6692 18.5265 25.6371L14.8056 23.5548C14.7764 23.5382 14.7508 23.516 14.7303 23.4894C14.7098 23.4629 14.6948 23.4325 14.6862 23.4C14.6776 23.3675 14.6755 23.3337 14.6802 23.3004C14.6848 23.2672 14.6961 23.2352 14.7133 23.2064L22.2416 10.4829ZM17.7153 26.8103L14.6896 27.9346C14.6531 27.9481 14.6141 27.9529 14.5755 27.9488C14.5368 27.9447 14.4997 27.9317 14.4669 27.9108C14.4341 27.89 14.4066 27.8618 14.3865 27.8286C14.3664 27.7953 14.3543 27.7579 14.351 27.7192L14.1048 24.7671C14.101 24.7215 14.1097 24.6757 14.1299 24.6347C14.1501 24.5937 14.1811 24.5589 14.2196 24.5341C14.258 24.5094 14.3025 24.4955 14.3482 24.4941C14.3939 24.4927 14.4392 24.5038 14.4791 24.5261L17.75 26.3539C17.7921 26.3774 17.8266 26.4124 17.8494 26.4548C17.8722 26.4972 17.8823 26.5452 17.8787 26.5933C17.875 26.6413 17.8577 26.6872 17.8287 26.7257C17.7998 26.7642 17.7604 26.7935 17.7153 26.8103ZM30.9271 30.9732C30.9271 32.0747 30.8656 32.9697 28.9306 32.9697H10.9471C10.4681 32.9689 10.0053 32.7964 9.64279 32.4833C9.28026 32.1702 9.04209 31.7375 8.97157 31.2637C8.96617 31.2278 8.96859 31.1911 8.97865 31.1562C8.98871 31.1213 9.00617 31.0889 9.02986 31.0613C9.05354 31.0338 9.08289 31.0116 9.11591 30.9964C9.14892 30.9812 9.18482 30.9733 9.22117 30.9732H26.6784C27.2748 30.9732 27.8468 30.7363 28.2686 30.3145C28.6903 29.8928 28.9272 29.3208 28.9272 28.7243V9.25341C28.9273 9.22002 28.9339 9.18697 28.9468 9.15617C28.9597 9.12537 28.9786 9.09742 29.0023 9.07396C29.0261 9.05049 29.0543 9.03196 29.0852 9.01945C29.1162 9.00693 29.1493 9.00068 29.1827 9.00104C30.1638 9.0112 30.9237 9.14754 30.9237 10.9969V30.9732H30.9271Z" fill="#2595E8"/>
</g>
<g id="Group 9">
<ellipse id="Ellipse 9" cx="15.8742" cy="13.629" rx="16.7564" ry="24.6936" transform="rotate(57.62 15.8742 13.629)" fill="white" fill-opacity="0.1"/>
<ellipse id="Ellipse 8" cx="11.709" cy="8.87964" rx="14.1372" ry="20.3731" transform="rotate(50.3964 11.709 8.87964)" fill="white" fill-opacity="0.2"/>
<ellipse id="Ellipse 7" cx="11.2583" cy="6.12386" rx="6.92627" ry="10.3213" transform="rotate(46.6043 11.2583 6.12386)" fill="white" fill-opacity="0.25"/>
</g>
</g>
</g>
</svg>
