<svg width="40" height="40" viewBox="0 0 40 40" fill="none" xmlns="http://www.w3.org/2000/svg">
<g id="Mask group">
<mask id="mask0_20_69" style="mask-type:alpha" maskUnits="userSpaceOnUse" x="0" y="0" width="40" height="40">
<rect id="Rectangle 12" width="40" height="40" fill="#D9D9D9"/>
</mask>
<g mask="url(#mask0_20_69)">
<g id="Vector">
<path d="M17.901 17.719C17.3338 18.6133 16.7463 19.4945 16.139 20.362C15.9013 20.2071 15.6602 20.0574 15.416 19.913V19.084C16.0757 18.2854 16.6932 17.453 17.266 16.59V14.477H14.394L15.945 13.56C15.2852 12.6367 14.5852 11.7428 13.847 10.881L11.821 12.026C12.4466 12.8209 13.043 13.6385 13.609 14.477H10.446V16.767H14.411C13.236 18.307 11.803 19.758 10.111 21.121C10.404 21.954 10.669 22.84 10.904 23.782C11.6048 23.1321 12.2923 22.4679 12.966 21.79V28.54H15.416V22.364C16.215 22.962 17.055 23.61 17.936 24.309L19.274 22.631C19.304 22.572 19.33 22.51 19.361 22.451L17.68 21.341C18.3622 20.521 19.0235 19.6837 19.663 18.83L17.901 17.719ZM23.733 16.432L22.871 17.199V11.163H20.315V20.998C21.5389 19.4317 23.2016 18.2655 25.091 17.648C24.645 17.245 24.209 16.846 23.733 16.432Z" fill="#2595E8"/>
<path d="M18.686 30.478H7.683C7.59423 30.478 7.50907 30.4429 7.44612 30.3803C7.38316 30.3177 7.34753 30.2328 7.347 30.144V8.683C7.347 8.498 7.498 8.348 7.683 8.348H29.142C29.329 8.348 29.479 8.499 29.479 8.683V17.178C30.2832 17.2808 31.0718 17.482 31.827 17.777V8.683C31.8269 8.33053 31.7573 7.98154 31.6223 7.65595C31.4873 7.33037 31.2895 7.03456 31.0402 6.78542C30.7908 6.53628 30.4949 6.33869 30.1692 6.20392C29.8435 6.06916 29.4945 5.99987 29.142 6H7.683C6.97159 6.00053 6.28946 6.28337 5.78642 6.78642C5.28337 7.28946 5.00053 7.97159 5 8.683V30.144C5.00053 30.8553 5.2834 31.5373 5.78648 32.0402C6.28955 32.5431 6.97168 32.8257 7.683 32.826H19.873C19.3759 32.0989 18.9767 31.3094 18.686 30.478Z" fill="#2595E8"/>
<path d="M28.182 18.436C25.8698 18.436 23.6524 19.3545 22.0174 20.9894C20.3825 22.6244 19.464 24.8418 19.464 27.154C19.4638 28.8785 19.975 30.5644 20.933 31.9984C21.891 33.4324 23.2527 34.55 24.8459 35.2101C26.4391 35.8701 28.1923 36.0429 29.8837 35.7065C31.5751 35.3701 33.1288 34.5397 34.3483 33.3202C35.5677 32.1008 36.3981 30.5471 36.7345 28.8557C37.0709 27.1643 36.8981 25.4111 36.2381 23.8179C35.5781 22.2247 34.4604 20.863 33.0264 19.905C31.5924 18.947 29.9065 18.4358 28.182 18.436ZM28.182 33.525C27.3453 33.5248 26.5169 33.3599 25.744 33.0396C24.9711 32.7193 24.2688 32.2499 23.6773 31.6582C22.4827 30.4633 21.8117 28.8427 21.812 27.153C21.8123 25.4633 22.4837 23.8429 23.6787 22.6483C24.8737 21.4537 26.4943 20.7827 28.184 20.783C29.8737 20.7832 31.4941 21.4547 32.6887 22.6497C33.8833 23.8447 34.5543 25.4653 34.554 27.155C34.5537 28.8447 33.8822 30.4651 32.6873 31.6597C31.4923 32.8543 29.8717 33.5252 28.182 33.525Z" fill="#2595E8"/>
<path d="M33.807 26.9489C33.8078 26.9809 33.8022 27.0126 33.7906 27.0424C33.7789 27.0721 33.7615 27.0993 33.7392 27.1222C33.7169 27.1451 33.6903 27.1633 33.6609 27.1758C33.6315 27.1883 33.5999 27.1948 33.568 27.1949C33.5026 27.1944 33.4399 27.1686 33.393 27.1229C33.3471 27.0759 33.3216 27.0127 33.322 26.9469C33.322 26.9389 33.323 26.9269 33.325 26.9199C33.287 26.5589 32.806 22.8299 29.145 22.2009L29.147 22.1909C29.0978 22.1752 29.055 22.1443 29.0246 22.1026C28.9942 22.0608 28.9779 22.0105 28.978 21.9589C28.9773 21.9178 28.9871 21.8772 29.0064 21.841C29.0258 21.8047 29.0541 21.774 29.0886 21.7517C29.1231 21.7294 29.1627 21.7162 29.2037 21.7134C29.2448 21.7107 29.2858 21.7184 29.323 21.7359C29.955 21.8669 33.53 22.7889 33.808 26.9469L33.807 26.9489ZM28.099 22.1109L28.1 22.1209H28.071C28.053 22.1229 28.036 22.1229 28.019 22.1229C27.999 22.1229 27.978 22.1229 27.96 22.1169C27.373 22.1169 25.081 22.2949 23.518 24.9369L23.502 24.9229C23.4629 24.9555 23.4138 24.9735 23.363 24.9739C23.3342 24.9743 23.3056 24.9689 23.279 24.9581C23.2523 24.9472 23.2282 24.931 23.2079 24.9106C23.1877 24.8901 23.1717 24.8658 23.1611 24.8391C23.1504 24.8123 23.1453 24.7837 23.146 24.7549C23.146 24.6969 23.168 24.6439 23.201 24.6069C23.285 24.4349 24.589 21.8429 27.947 21.6449C27.9685 21.6373 27.9911 21.6333 28.014 21.6329C28.0791 21.6332 28.1414 21.6592 28.1873 21.7053C28.2332 21.7514 28.259 21.8139 28.259 21.8789C28.2596 21.9294 28.2445 21.9788 28.2159 22.0204C28.1872 22.0619 28.1464 22.0936 28.099 22.1109ZM23.298 25.6399C23.2979 25.6776 23.2897 25.7147 23.274 25.7489C22.786 27.1999 23.356 28.7179 23.356 28.7179L23.353 28.7199C23.3646 28.7492 23.3707 28.7804 23.371 28.8119C23.3712 28.8699 23.3502 28.9259 23.3119 28.9694C23.2736 29.0129 23.2207 29.0408 23.1632 29.048C23.1057 29.0551 23.0476 29.0409 22.9998 29.0081C22.9521 28.9753 22.918 28.9262 22.904 28.8699L22.877 28.8819C22.21 27.6419 22.795 25.5009 22.795 25.5009L22.817 25.5109C22.8384 25.4705 22.8705 25.4367 22.9099 25.4132C22.9492 25.3898 22.9942 25.3776 23.04 25.3779C23.181 25.3789 23.298 25.4979 23.298 25.6399ZM23.517 29.9249C23.517 29.9249 23.768 29.0829 23.517 27.9949C23.517 27.9949 23.032 24.8039 25.528 23.2489L25.53 23.2509C25.5492 23.2305 25.5724 23.2143 25.5983 23.2035C25.6241 23.1926 25.652 23.1873 25.68 23.1879C25.7232 23.188 25.7654 23.2007 25.8014 23.2246C25.8374 23.2484 25.8656 23.2823 25.8825 23.3221C25.8993 23.3619 25.9041 23.4058 25.8962 23.4482C25.8883 23.4907 25.868 23.5299 25.838 23.5609L25.848 23.5709C25.848 23.5709 23.823 24.6179 23.917 27.5119C23.917 27.5119 24.3 29.2759 23.93 30.1409C23.9225 30.1971 23.8948 30.2487 23.8521 30.286C23.8095 30.3234 23.7547 30.344 23.698 30.3439C23.6663 30.3442 23.6349 30.3382 23.6055 30.3262C23.5762 30.3143 23.5495 30.2967 23.527 30.2744C23.5045 30.252 23.4866 30.2255 23.4744 30.1962C23.4623 30.167 23.456 30.1356 23.456 30.1039C23.456 30.0399 23.48 29.9789 23.522 29.9299L23.517 29.9249ZM24.241 30.5699C24.241 30.5699 24.799 29.3529 24.403 27.7519C24.403 27.7519 24.152 25.7719 25.287 24.6949C25.287 24.6949 26.74 22.9179 29.146 23.4879L29.144 23.4939C29.219 23.5229 29.274 23.5989 29.274 23.6869C29.2747 23.7142 29.27 23.7414 29.26 23.7668C29.25 23.7922 29.2351 23.8154 29.216 23.8349C29.177 23.8737 29.1249 23.8962 29.07 23.8979C29.042 23.8966 29.0144 23.8912 28.988 23.8819L28.984 23.8919C28.984 23.8919 26.304 23.3139 25.045 25.8219C25.045 25.8219 24.583 26.9099 24.965 28.0759C24.965 28.0759 25.349 29.8869 24.563 30.9709L24.544 30.9499C24.508 30.9744 24.4655 30.9873 24.422 30.9869C24.3899 30.9871 24.3582 30.9809 24.3286 30.9685C24.2991 30.9561 24.2723 30.9379 24.25 30.9149C24.2276 30.8927 24.2099 30.8662 24.1979 30.837C24.1859 30.8078 24.1798 30.7765 24.18 30.7449C24.18 30.6819 24.203 30.6219 24.244 30.5749L24.241 30.5699ZM24.805 31.2949C24.805 31.2949 25.148 30.7089 25.287 30.2479L25.298 30.2519C25.3112 30.212 25.3367 30.1773 25.3708 30.1527C25.4049 30.1281 25.4459 30.1149 25.488 30.1149C25.5227 30.1149 25.5569 30.1234 25.5875 30.1396C25.6182 30.1558 25.6444 30.1794 25.6638 30.2081C25.6833 30.2368 25.6954 30.2699 25.6991 30.3044C25.7027 30.3389 25.6979 30.3737 25.685 30.4059L25.69 30.4079C25.69 30.4079 25.432 31.1739 25.218 31.5189C25.2069 31.5726 25.1779 31.621 25.1358 31.656C25.0936 31.6911 25.0408 31.7108 24.986 31.7119C24.9385 31.7108 24.8924 31.696 24.8531 31.6693C24.8139 31.6426 24.7832 31.6051 24.7648 31.5613C24.7464 31.5175 24.7411 31.4694 24.7495 31.4227C24.7578 31.3759 24.7795 31.3326 24.812 31.2979L24.805 31.2949ZM25.688 31.6149C25.688 31.6149 26.633 29.8829 26.251 28.3159C26.251 28.3159 25.899 26.5069 26.653 25.9019L26.658 25.9059C26.6932 25.8715 26.7407 25.8524 26.79 25.8529C26.8234 25.8529 26.8562 25.8613 26.8854 25.8775C26.9146 25.8937 26.9392 25.9171 26.9568 25.9454C26.9744 25.9738 26.9845 26.0061 26.9861 26.0395C26.9877 26.0728 26.9808 26.106 26.966 26.1359L26.975 26.1419C26.975 26.1419 26.27 26.7489 26.815 28.7979C26.815 28.7979 26.81 30.6339 26.011 31.9369L26.004 31.9309C25.984 31.9512 25.9602 31.9672 25.9339 31.978C25.9076 31.9888 25.8794 31.9942 25.851 31.9939C25.7919 31.9937 25.7354 31.9701 25.6936 31.9283C25.6518 31.8866 25.6282 31.83 25.628 31.7709C25.628 31.7129 25.651 31.6559 25.688 31.6149ZM26.492 32.0989C26.492 32.0989 27.506 30.3799 27.217 28.6379C27.217 28.6379 26.723 26.4369 27.78 26.1419C27.78 26.1419 28.926 25.7319 29.308 27.0269C29.308 27.0269 29.471 28.0719 29.388 29.0409H29.386C29.3844 29.0932 29.3628 29.1429 29.3255 29.1796C29.2883 29.2163 29.2383 29.2372 29.186 29.2379C29.1317 29.2366 29.08 29.2144 29.0418 29.1758C29.0035 29.1372 28.9817 29.0853 28.981 29.0309C28.981 29.0059 28.986 28.9819 28.994 28.9609H28.986C28.986 28.9609 29.331 26.3419 28.182 26.3829C28.182 26.3829 27.177 26.3439 27.539 28.0719C27.539 28.0719 28.024 30.2809 26.906 32.3159C26.8968 32.3703 26.8687 32.4197 26.8266 32.4554C26.7845 32.4911 26.7312 32.5108 26.676 32.5109C26.6117 32.511 26.55 32.4858 26.504 32.4409C26.4593 32.3955 26.434 32.3345 26.4332 32.2707C26.4325 32.207 26.4564 32.1454 26.5 32.0989H26.492ZM27.7 31.5349L27.709 31.5449C27.7427 31.5129 27.7875 31.4953 27.834 31.4959C27.8668 31.496 27.8991 31.5043 27.9279 31.5199C27.9567 31.5356 27.9812 31.5582 27.9992 31.5856C28.0171 31.6131 28.028 31.6446 28.0307 31.6773C28.0335 31.71 28.0281 31.7428 28.015 31.7729L28.02 31.7789C27.914 32.2439 27.636 32.4629 27.62 32.4999C27.6025 32.5322 27.5769 32.5592 27.5456 32.5784C27.5144 32.5975 27.4786 32.6081 27.442 32.6089C27.3998 32.6077 27.3589 32.594 27.3244 32.5697C27.2899 32.5453 27.2633 32.5113 27.248 32.4719C27.2333 32.4323 27.231 32.3891 27.2416 32.3482C27.2521 32.3072 27.2749 32.2705 27.307 32.2429C27.399 32.0639 27.7 31.5349 27.7 31.5349ZM27.854 30.9269C27.854 30.8859 27.864 30.8489 27.878 30.8179L27.859 30.8099C28.444 29.2729 27.94 27.1909 27.94 27.1909L27.954 27.1869C27.9461 27.1307 27.9581 27.0736 27.9879 27.0253C28.0177 26.977 28.0635 26.9407 28.1173 26.9226C28.1711 26.9046 28.2295 26.9059 28.2824 26.9264C28.3353 26.947 28.3794 26.9853 28.407 27.0349L28.422 27.0289C28.861 29.3629 28.341 30.9739 28.341 30.9739L28.324 30.9659C28.3163 31.0219 28.2887 31.0732 28.2463 31.1105C28.2039 31.1477 28.1495 31.1685 28.093 31.1689C28.0614 31.1688 28.0301 31.1624 28.001 31.1502C27.9719 31.1379 27.9454 31.1201 27.9232 31.0976C27.901 31.0751 27.8835 31.0484 27.8716 31.0192C27.8597 30.9899 27.8537 30.9585 27.854 30.9269ZM28.343 32.2589C28.897 31.4659 28.986 29.9249 28.986 29.9249C28.9682 29.8993 28.9567 29.8699 28.9522 29.8391C28.9478 29.8082 28.9506 29.7767 28.9604 29.7471C28.9702 29.7176 28.9867 29.6907 29.0087 29.6686C29.0307 29.6465 29.0576 29.6298 29.0871 29.6199C29.1167 29.6099 29.1481 29.607 29.179 29.6113C29.2099 29.6157 29.2393 29.6271 29.265 29.6448C29.2907 29.6624 29.3119 29.6858 29.327 29.7131C29.3421 29.7404 29.3507 29.7708 29.352 29.8019C29.392 29.8549 29.402 29.9229 29.382 29.9859C29.199 31.8099 28.815 32.4039 28.753 32.4879C28.7418 32.5409 28.713 32.5885 28.6712 32.6228C28.6294 32.6572 28.5771 32.6763 28.523 32.6769C28.4752 32.6765 28.4287 32.6621 28.389 32.6355C28.3493 32.6089 28.3183 32.5713 28.2997 32.5273C28.2811 32.4834 28.2758 32.4349 28.2843 32.3879C28.2929 32.3409 28.315 32.2975 28.348 32.2629L28.343 32.2589ZM29.87 27.1109C29.392 25.0639 27.618 25.7419 27.618 25.7419L27.614 25.7319C27.603 25.7339 27.593 25.7379 27.581 25.7379C27.5525 25.738 27.5243 25.7324 27.498 25.7214C27.4717 25.7104 27.4479 25.6943 27.428 25.6739C27.3869 25.6324 27.3639 25.5763 27.364 25.5179C27.364 25.4009 27.451 25.3069 27.565 25.2989C28.962 24.7989 29.87 25.9829 29.87 25.9829C30.891 27.7759 29.988 31.5029 29.815 32.1589C29.815 32.2129 29.7942 32.2649 29.757 32.3039C29.7189 32.3418 29.6677 32.3636 29.614 32.3649C29.5865 32.3651 29.5594 32.3597 29.534 32.3493C29.5086 32.3388 29.4856 32.3234 29.4663 32.304C29.4469 32.2845 29.4316 32.2614 29.4213 32.236C29.4109 32.2106 29.4057 32.1834 29.406 32.1559C29.406 32.0999 29.429 32.0449 29.469 32.0079C30.152 29.6659 29.87 27.1109 29.87 27.1109ZM30.201 25.6599C29.936 25.3769 28.972 24.4589 27.7 24.7789C27.7 24.7789 25.984 24.9859 25.688 27.0289C25.688 27.0289 26.145 28.5639 25.849 29.3629L25.837 29.3589C25.8334 29.4064 25.8155 29.4517 25.7855 29.4887C25.7556 29.5258 25.7152 29.5529 25.6695 29.5665C25.6239 29.58 25.5752 29.5794 25.5299 29.5646C25.4846 29.5499 25.4449 29.5218 25.416 29.4839C25.3932 29.4559 25.377 29.4231 25.3686 29.388C25.3601 29.3529 25.3596 29.3163 25.367 29.2809C25.382 29.2109 25.636 28.2689 25.207 27.1109C25.207 27.1109 25.198 24.7889 27.699 24.2949C27.699 24.2949 29.33 23.9729 30.547 25.3689C30.5843 25.3901 30.6153 25.4208 30.6369 25.4579C30.6585 25.4949 30.6699 25.537 30.67 25.5799C30.6708 25.612 30.6652 25.6438 30.6536 25.6737C30.642 25.7036 30.6245 25.7308 30.6023 25.7539C30.5801 25.777 30.5535 25.7954 30.5241 25.8081C30.4947 25.8208 30.463 25.8275 30.431 25.8279C30.3798 25.8278 30.33 25.8115 30.2887 25.7814C30.2473 25.7512 30.2166 25.7087 30.201 25.6599ZM30.514 26.4659L30.521 26.4619C30.5008 26.4013 30.5056 26.3352 30.5342 26.2781C30.5628 26.221 30.6129 26.1776 30.6735 26.1574C30.7341 26.1373 30.8002 26.142 30.8573 26.1706C30.9144 26.1992 30.9578 26.2493 30.978 26.3099L30.996 26.3059C31.563 29.9839 30.834 31.9369 30.834 31.9369L30.815 31.9189C30.7958 31.9383 30.7728 31.9537 30.7476 31.9642C30.7224 31.9747 30.6953 31.98 30.668 31.9799C30.611 31.9797 30.5563 31.957 30.5159 31.9167C30.4755 31.8765 30.4525 31.822 30.452 31.7649C30.4513 31.7364 30.4565 31.708 30.4671 31.6815C30.4778 31.6551 30.4937 31.631 30.514 31.6109C31.146 28.1579 30.514 26.4659 30.514 26.4659ZM31.56 30.9699C31.748 29.0009 31.56 26.9469 31.56 26.9469C31.451 25.0489 29.79 24.2129 29.79 24.2129L29.798 24.2029C29.7657 24.1669 29.7476 24.1203 29.747 24.0719C29.747 23.9629 29.832 23.8749 29.939 23.8749C29.971 23.8749 30.002 23.8849 30.028 23.8979L30.031 23.8939C31.546 24.4409 31.962 26.4679 31.962 26.4679C32.218 28.3819 32.043 31.0539 32.043 31.0539H32.038L32.04 31.0699C32.0406 31.1018 32.035 31.1335 32.0233 31.1632C32.0116 31.1929 31.9941 31.22 31.9719 31.2429C31.9497 31.2658 31.9231 31.284 31.8938 31.2965C31.8644 31.3091 31.8329 31.3157 31.801 31.3159C31.7605 31.3164 31.7206 31.3067 31.6848 31.2878C31.649 31.269 31.6185 31.2414 31.596 31.2077C31.5736 31.1741 31.5599 31.1353 31.5562 31.095C31.5525 31.0547 31.559 31.0141 31.575 30.9769L31.56 30.9699ZM32.443 27.6739C32.693 25.2459 30.998 23.8909 30.998 23.8909C29.27 22.2909 26.412 23.2499 26.412 23.2499L26.411 23.2439L26.394 23.2459C26.3456 23.2454 26.299 23.2278 26.2624 23.1961C26.2258 23.1644 26.2017 23.1207 26.1944 23.0729C26.1871 23.025 26.197 22.9761 26.2224 22.9349C26.2478 22.8937 26.287 22.8629 26.333 22.8479V22.8459C29.484 21.6739 31.478 23.7289 31.478 23.7289C33.055 24.9669 32.927 27.9149 32.927 27.9149L32.881 27.8919C32.8596 27.925 32.8303 27.9521 32.7957 27.9708C32.7611 27.9895 32.7223 27.9992 32.683 27.9989C32.6441 27.9991 32.6057 27.99 32.571 27.9723C32.5363 27.9546 32.5064 27.9289 32.4837 27.8973C32.461 27.8657 32.4461 27.8291 32.4405 27.7906C32.4348 27.7521 32.4384 27.7128 32.451 27.6759L32.444 27.6719L32.443 27.6739ZM32.599 28.7179C32.599 28.5829 32.703 28.4719 32.839 28.4719C32.945 28.4719 33.038 28.5419 33.07 28.6419L33.087 28.6399C33.149 29.3839 33.087 29.9249 33.087 29.9249H33.082C33.0837 29.977 33.0685 30.0283 33.0385 30.0709C33.0086 30.1135 32.9656 30.1453 32.916 30.1613C32.8664 30.1774 32.8129 30.1768 32.7637 30.1598C32.7144 30.1428 32.6721 30.1102 32.643 30.0669C32.6206 30.0348 32.6062 29.9979 32.601 29.9591C32.5958 29.9203 32.5999 29.8808 32.613 29.8439C32.633 29.4905 32.6317 29.1362 32.609 28.7829C32.6029 28.7618 32.5996 28.7399 32.599 28.7179Z" fill="#2595E8"/>
</g>
<g id="Group 4">
<ellipse id="Ellipse 9" cx="16.1656" cy="16.6953" rx="19" ry="28" transform="rotate(28.8993 16.1656 16.6953)" fill="white" fill-opacity="0.1"/>
<ellipse id="Ellipse 8" cx="9.41192" cy="4.73719" rx="18.5" ry="26.5" transform="rotate(16.9208 9.41192 4.73719)" fill="white" fill-opacity="0.2"/>
<ellipse id="Ellipse 7" cx="5.84321" cy="6.94134" rx="10.5" ry="13.5" transform="rotate(30 5.84321 6.94134)" fill="white" fill-opacity="0.25"/>
</g>
</g>
</g>
</svg>
