<svg width="40" height="40" viewBox="0 0 40 40" fill="none" xmlns="http://www.w3.org/2000/svg">
<g id="Mask group">
<mask id="mask0_20_61" style="mask-type:alpha" maskUnits="userSpaceOnUse" x="0" y="0" width="40" height="40">
<rect id="Rectangle 10" width="40" height="40" fill="#D9D9D9"/>
</mask>
<g mask="url(#mask0_20_61)">
<g id="Vector">
<path d="M34.0071 7L28.2671 7.63L30.1571 9.52L23.9271 17.136L17.4591 11.158C17.0251 10.752 16.3391 10.752 15.8911 11.144L6.38513 19.726C5.90913 20.16 5.86713 20.902 6.30113 21.378C6.52513 21.63 6.84713 21.756 7.16913 21.756C7.44913 21.756 7.72913 21.658 7.95313 21.462L16.6611 13.594L23.2551 19.684C23.4931 19.908 23.8151 20.006 24.1231 19.992C24.4451 19.964 24.7391 19.81 24.9491 19.572L31.8091 11.186L33.3771 12.754L34.0071 7ZM9.64713 35H6.84713C6.38513 35 6.00713 34.622 6.00713 34.16V24.64C6.00713 24.178 6.38513 23.8 6.84713 23.8H9.64713C10.1091 23.8 10.4871 24.178 10.4871 24.64V34.16C10.4871 34.622 10.1091 35 9.64713 35Z" fill="#2595E8"/>
<path d="M17.4869 35H14.6869C14.2249 35 13.8469 34.622 13.8469 34.16V19.04C13.8469 18.578 14.2249 18.2 14.6869 18.2H17.4869C17.9489 18.2 18.3269 18.578 18.3269 19.04V34.16C18.3269 34.622 17.9489 35 17.4869 35ZM25.3269 35H22.5269C22.0649 35 21.6869 34.622 21.6869 34.16V23.24C21.6869 22.778 22.0649 22.4 22.5269 22.4H25.3269C25.7889 22.4 26.1669 22.778 26.1669 23.24V34.16C26.1669 34.622 25.7889 35 25.3269 35ZM33.1669 35H30.3669C29.9049 35 29.5269 34.622 29.5269 34.16V16.24C29.5269 15.778 29.9049 15.4 30.3669 15.4H33.1669C33.6289 15.4 34.0069 15.778 34.0069 16.24V34.16C34.0069 34.622 33.6289 35 33.1669 35Z" fill="#2595E8"/>
</g>
<g id="Group 3">
<circle id="Ellipse 9" cx="10" cy="12" r="28" fill="white" fill-opacity="0.1"/>
<circle id="Ellipse 8" cx="10" cy="10" r="20" fill="white" fill-opacity="0.2"/>
<circle id="Ellipse 7" cx="8" cy="12" r="10" fill="white" fill-opacity="0.25"/>
</g>
</g>
</g>
</svg>
