<svg width="40" height="40" viewBox="0 0 40 40" fill="none" xmlns="http://www.w3.org/2000/svg">
<g id="Mask group">
<mask id="mask0_20_70" style="mask-type:alpha" maskUnits="userSpaceOnUse" x="0" y="0" width="40" height="40">
<rect id="Rectangle 13" width="40" height="40" fill="#D9D9D9"/>
</mask>
<g mask="url(#mask0_20_70)">
<path id="Vector" d="M11.816 21.5287C10.6527 19.8769 10.1409 17.7131 10.6527 15.7123L7.65144 17.2013C6.97673 15.5494 6.97673 13.8743 7.48858 12.2224C8.81473 8.244 13.1421 6.24315 16.981 7.5693C18.3071 8.05788 19.4704 8.89544 20.308 9.89587C21.4713 8.56972 22.9835 7.56929 24.7983 7.24357C27.7995 6.24315 31.9641 8.40686 33.2903 12.2224C33.4531 12.8971 33.616 13.7114 33.616 14.549C33.616 15.3866 33.4531 16.387 33.1274 17.2013L30.1261 15.5494C29.9633 14.8747 29.8004 12.3853 30.289 16.387C30.4518 18.225 29.9633 20.2026 28.8 21.5287L26.4734 19.5279C27.1481 21.0169 27.4738 22.692 27.4738 24.3439C27.4738 27.3451 26.4734 30.1603 24.7983 32.6497H8.00043V31.3236H14.1658C18.0047 29.6717 20.3313 25.8329 20.3313 21.6916C20.3313 19.6907 19.8427 17.7131 18.8422 15.8752L11.816 21.5287ZM8.16329 31.4864H32.6388C33.3135 31.4864 33.8021 31.975 33.8021 32.6497C33.8021 33.3244 33.3135 33.813 32.6388 33.813H8.16329C7.48858 33.813 7 33.3244 7 32.6497C7 31.9983 7.48858 31.4864 8.16329 31.4864Z" fill="#2595E8"/>
<g id="Group 5">
<ellipse id="Ellipse 9" cx="17.8985" cy="16.2269" rx="12.5332" ry="18.47" transform="rotate(28.8993 17.8985 16.2269)" fill="white" fill-opacity="0.1"/>
<ellipse id="Ellipse 8" cx="12.7628" cy="9.27561" rx="12.2034" ry="17.4806" transform="rotate(16.9208 12.7628 9.27561)" fill="white" fill-opacity="0.2"/>
<ellipse id="Ellipse 7" cx="9.67245" cy="8.24428" rx="6.92627" ry="8.9052" transform="rotate(33.2101 9.67245 8.24428)" fill="white" fill-opacity="0.25"/>
</g>
</g>
</g>
</svg>
